<mxfile host="app.diagrams.net" modified="2021-12-28T13:03:37.957Z" agent="5.0 (Macintosh; Intel Mac OS X 10_15_7) AppleWebKit/537.36 (KHTML, like Gecko) Chrome/96.0.4664.110 Safari/537.36" etag="MvjJrQQJN44rX6wxAP_f" version="16.1.0" type="github">
  <diagram id="9WeEJbXT1PUSzhQ5nLSV" name="第 1 页">
    <mxGraphModel dx="1426" dy="803" grid="1" gridSize="10" guides="1" tooltips="1" connect="1" arrows="1" fold="1" page="1" pageScale="1" pageWidth="1169" pageHeight="827" math="0" shadow="0">
      <root>
        <mxCell id="0" />
        <mxCell id="1" parent="0" />
        <mxCell id="WuoBhHMPlbbzmrBhqIo8-1" value="" style="ellipse;shape=cloud;whiteSpace=wrap;html=1;fillColor=#f5f5f5;fontColor=#333333;strokeColor=#666666;" vertex="1" parent="1">
          <mxGeometry x="720" y="324" width="140" height="94" as="geometry" />
        </mxCell>
        <mxCell id="WuoBhHMPlbbzmrBhqIo8-2" value="" style="html=1;shadow=0;dashed=0;align=center;verticalAlign=middle;shape=mxgraph.arrows2.arrow;dy=0;dx=23;notch=16;fillColor=#ffe6cc;strokeColor=#d79b00;" vertex="1" parent="1">
          <mxGeometry x="430" y="359.25" width="60" height="30" as="geometry" />
        </mxCell>
        <mxCell id="WuoBhHMPlbbzmrBhqIo8-3" value="" style="ellipse;whiteSpace=wrap;html=1;aspect=fixed;fillColor=#dae8fc;strokeColor=#6c8ebf;" vertex="1" parent="1">
          <mxGeometry x="514" y="318" width="104" height="104" as="geometry" />
        </mxCell>
        <mxCell id="WuoBhHMPlbbzmrBhqIo8-4" value="" style="shape=table;html=1;whiteSpace=wrap;startSize=0;container=1;collapsible=0;childLayout=tableLayout;fillColor=#d5e8d4;strokeColor=#82b366;" vertex="1" parent="1">
          <mxGeometry x="200" y="360" width="200" height="28.5" as="geometry" />
        </mxCell>
        <mxCell id="WuoBhHMPlbbzmrBhqIo8-5" value="" style="shape=partialRectangle;html=1;whiteSpace=wrap;collapsible=0;dropTarget=0;pointerEvents=0;fillColor=none;top=0;left=0;bottom=0;right=0;points=[[0,0.5],[1,0.5]];portConstraint=eastwest;" vertex="1" parent="WuoBhHMPlbbzmrBhqIo8-4">
          <mxGeometry width="200" height="29" as="geometry" />
        </mxCell>
        <mxCell id="WuoBhHMPlbbzmrBhqIo8-6" value="" style="shape=partialRectangle;html=1;whiteSpace=wrap;connectable=0;fillColor=none;top=0;left=0;bottom=0;right=0;overflow=hidden;pointerEvents=1;" vertex="1" parent="WuoBhHMPlbbzmrBhqIo8-5">
          <mxGeometry width="40" height="29" as="geometry">
            <mxRectangle width="40" height="29" as="alternateBounds" />
          </mxGeometry>
        </mxCell>
        <mxCell id="WuoBhHMPlbbzmrBhqIo8-7" value="" style="shape=partialRectangle;html=1;whiteSpace=wrap;connectable=0;fillColor=none;top=0;left=0;bottom=0;right=0;overflow=hidden;pointerEvents=1;" vertex="1" parent="WuoBhHMPlbbzmrBhqIo8-5">
          <mxGeometry x="40" width="39" height="29" as="geometry">
            <mxRectangle width="39" height="29" as="alternateBounds" />
          </mxGeometry>
        </mxCell>
        <mxCell id="WuoBhHMPlbbzmrBhqIo8-8" value="" style="shape=partialRectangle;html=1;whiteSpace=wrap;connectable=0;fillColor=none;top=0;left=0;bottom=0;right=0;overflow=hidden;pointerEvents=1;" vertex="1" parent="WuoBhHMPlbbzmrBhqIo8-5">
          <mxGeometry x="79" width="41" height="29" as="geometry">
            <mxRectangle width="41" height="29" as="alternateBounds" />
          </mxGeometry>
        </mxCell>
        <mxCell id="WuoBhHMPlbbzmrBhqIo8-9" style="shape=partialRectangle;html=1;whiteSpace=wrap;connectable=0;fillColor=none;top=0;left=0;bottom=0;right=0;overflow=hidden;pointerEvents=1;" vertex="1" parent="WuoBhHMPlbbzmrBhqIo8-5">
          <mxGeometry x="120" width="20" height="29" as="geometry">
            <mxRectangle width="20" height="29" as="alternateBounds" />
          </mxGeometry>
        </mxCell>
        <mxCell id="WuoBhHMPlbbzmrBhqIo8-10" style="shape=partialRectangle;html=1;whiteSpace=wrap;connectable=0;fillColor=none;top=0;left=0;bottom=0;right=0;overflow=hidden;pointerEvents=1;" vertex="1" parent="WuoBhHMPlbbzmrBhqIo8-5">
          <mxGeometry x="140" width="60" height="29" as="geometry">
            <mxRectangle width="60" height="29" as="alternateBounds" />
          </mxGeometry>
        </mxCell>
        <mxCell id="WuoBhHMPlbbzmrBhqIo8-11" value="" style="html=1;shadow=0;dashed=0;align=center;verticalAlign=middle;shape=mxgraph.arrows2.arrow;dy=0;dx=23;notch=16;fillColor=#ffe6cc;strokeColor=#d79b00;" vertex="1" parent="1">
          <mxGeometry x="640" y="360" width="60" height="30" as="geometry" />
        </mxCell>
        <mxCell id="WuoBhHMPlbbzmrBhqIo8-12" value="&lt;font style=&quot;font-size: 16px&quot;&gt;Data&lt;br&gt;Dst&lt;br&gt;&lt;/font&gt;" style="text;strokeColor=none;fillColor=none;html=1;fontSize=24;fontStyle=1;verticalAlign=middle;align=center;" vertex="1" parent="1">
          <mxGeometry x="746" y="350" width="100" height="40" as="geometry" />
        </mxCell>
        <mxCell id="WuoBhHMPlbbzmrBhqIo8-13" value="&lt;font style=&quot;font-size: 16px&quot;&gt;io.Writer&lt;/font&gt;" style="text;strokeColor=none;fillColor=none;html=1;fontSize=24;fontStyle=1;verticalAlign=middle;align=center;" vertex="1" parent="1">
          <mxGeometry x="516" y="351" width="100" height="40" as="geometry" />
        </mxCell>
        <mxCell id="WuoBhHMPlbbzmrBhqIo8-14" value="&lt;font style=&quot;font-size: 16px&quot;&gt;[]byte&lt;/font&gt;" style="text;strokeColor=none;fillColor=none;html=1;fontSize=24;fontStyle=1;verticalAlign=middle;align=center;" vertex="1" parent="1">
          <mxGeometry x="247" y="382" width="100" height="40" as="geometry" />
        </mxCell>
      </root>
    </mxGraphModel>
  </diagram>
</mxfile>
